HIERARCHY
ROOT hip
{
	OFFSET 0.000000 0.000000 0.000000 
	CHANNELS 6 Xposition Yposition Zposition Xrotation Zrotation Yrotation
	JOINT abdomen
	{
		OFFSET 0.000000 3.402643 0.000000 
		CHANNELS 3 Xrotation Zrotation Yrotation
		JOINT chest
		{
			OFFSET 0.000000 8.438565 -0.680529 
			CHANNELS 3 Xrotation Zrotation Yrotation
			JOINT neck
			{
				OFFSET 0.000000 10.207942 -0.272212 
				CHANNELS 3 Xrotation Zrotation Yrotation
				JOINT head
				{
					OFFSET 0.000000 3.130431 0.000000 
					CHANNELS 3 Xrotation Zrotation Yrotation
					End Site
					{
						OFFSET 0.000000 3.130435 0.000000 
					}
				}
			}
			JOINT lCollar
			{
				OFFSET 3.470700 6.669187 -0.816635 
				CHANNELS 3 Yrotation Zrotation Xrotation
				JOINT lShldr
				{
					OFFSET 3.198488 0.000000 0.000000 
					CHANNELS 3 Zrotation Yrotation Xrotation
					JOINT lForeArm
					{
						OFFSET 10.139888 0.000000 0.000000 
						CHANNELS 3 Yrotation Zrotation Xrotation
						JOINT lHand
						{
							OFFSET 8.370511 0.000000 0.000000 
							CHANNELS 3 Zrotation Yrotation Xrotation
							End Site
							{
								OFFSET 4.083176 0.000000 0.000000 
							}
						}
					}
				}
			}
			JOINT rCollar
			{
				OFFSET -3.470700 6.669187 -0.816635 
				CHANNELS 3 Yrotation Zrotation Xrotation
				JOINT rShldr
				{
					OFFSET -3.198488 0.000000 0.000000 
					CHANNELS 3 Zrotation Yrotation Xrotation
					JOINT rForeArm
					{
						OFFSET -10.139888 0.000000 0.000000 
						CHANNELS 3 Yrotation Zrotation Xrotation
						JOINT rHand
						{
							OFFSET -8.370511 0.000000 0.000000 
							CHANNELS 3 Zrotation Yrotation Xrotation
							End Site
							{
								OFFSET -4.083176 0.000000 0.000000 
							}
						}
					}
				}
			}
		}
	}
	JOINT lThigh
	{
		OFFSET 5.308129 -1.633274 1.361059 
		CHANNELS 3 Xrotation Zrotation Yrotation
		JOINT lShin
		{
			OFFSET -2.041588 -20.007561 0.000000 
			CHANNELS 3 Xrotation Zrotation Yrotation
			JOINT lFoot
			{
				OFFSET 0.000000 -19.190928 -1.224953 
				CHANNELS 3 Xrotation Yrotation Zrotation
				End Site
				{
					OFFSET 0.000000 -2.449906 4.627600 
				}
			}
		}
	}
	JOINT rThigh
	{
		OFFSET -5.308129 -1.633274 1.361059 
		CHANNELS 3 Xrotation Zrotation Yrotation
		JOINT rShin
		{
			OFFSET 2.041588 -20.007561 0.000000 
			CHANNELS 3 Xrotation Zrotation Yrotation
			JOINT rFoot
			{
				OFFSET 0.000000 -19.190928 -1.224953 
				CHANNELS 3 Xrotation Yrotation Zrotation
				End Site
				{
					OFFSET 0.000000 -2.449906 4.627600 
				}
			}
		}
	}
}
MOTION
Frames: 15
Frame Time: 0.016667
0.548243 53.925922 -5.763351 -3.902231 0.370838 2.128988 29.453350 0.496052 -0.590556 -0.245554 2.089240 -2.071177 -6.054767 0.731485 -0.061290 13.188420 -1.938888 -3.889117 -6.945461 -2.595546 -0.141528 -78.521935 18.330034 -33.323338 -12.303125 -5.000000 45.000000 -30.899708 7.841245 20.683716 6.134220 5.082586 -0.271496 65.484543 -0.831023 -4.490836 32.021835 5.000000 6.998950 13.273379 -15.633772 -3.745476 5.983203 10.617781 -6.939959 0.880139 -5.391360 -0.309834 -5.527498 7.793569 -2.956145 7.908167 -7.750592 2.207101 -0.350254 2.466649 0.013015 -0.051252 -17.591824 9.372110 
0.766759 53.936432 -5.725563 -3.973942 0.497637 2.324385 29.532228 0.308787 -0.647218 -0.184971 2.050214 -2.002488 -6.103565 0.702517 -0.056907 13.140235 -1.782198 -4.250241 -6.799176 -2.673592 -0.145559 -77.981819 18.108004 -32.689888 -12.373722 -5.000000 45.000000 -31.614197 8.007872 21.645123 6.066143 5.141112 -0.274529 65.472694 -1.187407 -5.080587 31.605679 5.000000 7.188521 12.935798 -15.277921 -4.878041 6.140825 10.231194 -7.129947 0.653697 -5.374500 -0.280303 -5.124881 7.807850 -2.751475 8.046527 -8.095285 1.845268 -0.223461 2.433125 0.060308 0.005983 -17.565390 9.558447 
0.986535 53.945671 -5.726874 -3.967304 0.614649 2.500170 29.640532 0.136444 -0.739392 -0.123620 2.020972 -1.943935 -6.201267 0.633466 -0.056336 13.047477 -1.616069 -4.513776 -6.652974 -2.780895 -0.151100 -77.442039 17.738811 -31.922447 -12.613994 -5.000000 45.000000 -31.771811 7.976243 22.161793 6.075263 5.190907 -0.267384 65.482903 -1.421320 -5.500130 31.080536 5.000000 7.404124 12.872632 -15.223495 -5.521674 6.217196 9.865456 -7.298933 0.382307 -5.391213 -0.257762 -4.838405 7.764637 -2.563595 7.988192 -8.437177 1.482758 0.000579 2.413126 0.034903 0.094704 -17.380199 9.798705 
1.207152 53.954075 -5.754251 -3.922039 0.712125 2.656530 29.768742 -0.037683 -0.875102 -0.061650 1.991742 -1.904923 -6.318471 0.545104 -0.052843 12.932425 -1.450129 -4.728259 -6.506892 -2.927209 -0.158654 -76.909378 17.268801 -31.062675 -12.961038 -5.000000 45.000000 -31.568594 7.800137 22.382284 6.124369 5.249422 -0.270416 65.507805 -1.578273 -5.825434 30.486341 5.000000 7.634787 12.980023 -15.354986 -5.828827 6.255717 9.544088 -7.414328 0.049294 -5.414982 -0.238895 -4.685885 7.694560 -2.401491 7.847562 -8.763411 1.082592 0.263877 2.378034 -0.007571 0.145383 -17.179310 10.050128 
1.426926 53.961628 -5.793391 -3.866890 0.809591 2.783615 29.897425 -0.214303 -0.980781 0.009337 1.962494 -1.856130 -6.425817 0.448546 -0.038234 12.787458 -1.294019 -4.933027 -6.380304 -3.054014 -0.165200 -76.396568 16.755232 -30.196421 -13.381894 -5.000000 44.795097 -31.227030 7.626676 22.470423 6.192962 5.298184 -0.272943 65.550034 -1.695073 -6.115310 29.877863 5.000000 7.909765 13.154450 -15.571943 -5.953674 6.277660 9.204924 -7.502813 -0.262173 -5.439085 -0.231290 -4.539144 7.671656 -2.207688 7.680500 -9.084483 0.684417 0.564512 2.365149 -0.009577 0.194668 -16.922045 10.291750 
1.643335 53.965828 -5.879599 -3.747082 0.848572 2.832443 30.084515 -0.371740 -1.059101 0.089162 1.894154 -1.816750 -6.533245 0.350528 -0.033281 12.583069 -1.147768 -5.108547 -6.361033 -3.141791 -0.169730 -75.957764 16.091314 -29.222179 -14.082416 -5.000000 43.236008 -30.370522 7.445515 22.046055 6.310384 5.346947 -0.275469 65.641624 -1.697329 -6.262553 29.204773 5.000000 8.336722 13.579921 -16.106178 -5.369574 6.181191 8.943438 -7.523197 -0.583800 -5.502097 -0.163273 -4.412914 7.565611 -2.016506 7.273580 -9.430408 0.316832 1.004665 2.437979 0.035072 0.171809 -16.689548 10.452641 
1.859744 53.970028 -5.965804 -3.627358 0.887556 2.871505 30.262016 -0.524474 -1.124640 0.168769 1.835578 -1.767935 -6.640671 0.262166 -0.029788 12.368918 -1.011310 -5.284101 -6.341769 -3.229567 -0.174260 -75.527222 15.430439 -28.253990 -14.781710 -5.000000 41.674889 -29.502602 7.273324 21.599401 6.437624 5.405462 -0.278500 65.733307 -1.699124 -6.410104 28.539904 5.000000 8.775131 14.005725 -16.651028 -4.799757 6.089839 8.664652 -7.524429 -0.905266 -5.567988 -0.143607 -4.355597 7.514059 -1.796742 6.873288 -9.761875 -0.056974 1.455525 2.508901 0.061782 0.138082 -16.453032 10.603995 
2.067737 53.970863 -6.100748 -3.400998 0.907024 2.920328 30.412418 -0.679132 -1.264447 0.287342 1.796536 -1.709355 -6.806651 0.175264 -0.016640 12.128939 -0.933369 -5.381734 -6.360955 -3.298913 -0.168092 -75.097496 14.637925 -27.127596 -15.770343 -5.000000 39.620140 -28.333973 7.011280 20.985498 6.564817 5.454225 -0.281026 65.831886 -1.543557 -6.402494 27.902039 5.000000 9.395272 14.610388 -17.259260 -3.552270 5.835852 8.440829 -7.578763 -1.248472 -5.651059 -0.082365 -4.240202 7.513454 -1.539089 6.208855 -10.112803 -0.386735 2.038967 2.632928 0.106146 0.060070 -16.288481 10.721781 
2.273627 53.970863 -6.247875 -3.145813 0.916737 2.969151 30.564417 -0.838621 -1.437510 0.415355 1.757486 -1.670301 -6.982432 0.086902 -0.013148 11.879417 -0.865212 -5.449924 -6.380633 -3.347676 -0.170608 -74.691071 13.800310 -25.985710 -16.846287 -5.000000 37.433926 -27.076063 6.743701 20.293013 6.691964 5.493234 -0.283047 65.946747 -1.343304 -6.370832 27.265858 5.000000 10.072774 15.256862 -17.913830 -2.147750 5.533128 8.205509 -7.623200 -1.579976 -5.731020 -0.080105 -4.122590 7.480812 -1.337441 5.476182 -10.462888 -0.710773 2.685751 2.782236 0.156517 -0.052691 -16.116386 10.848198 
2.468588 53.970863 -6.410122 -2.882801 0.906992 2.959386 30.735683 -0.989099 -1.588145 0.543462 1.728206 -1.621484 -7.148437 -0.009656 0.001459 11.622224 -0.826286 -5.479211 -6.430122 -3.375840 -0.181806 -74.308746 12.937342 -24.820045 -18.050774 -5.000000 35.143459 -25.801142 6.486590 19.565117 6.828878 5.532245 -0.285067 66.066360 -1.093873 -6.253474 26.676939 5.000000 10.822096 15.967534 -18.539141 -0.592168 5.222167 8.012890 -7.652206 -1.880488 -5.803608 -0.021659 -3.968939 7.466962 -1.098835 4.637458 -10.829169 -0.880574 3.407300 2.987130 0.193661 -0.177083 -16.036499 10.917694 
2.647155 53.970863 -6.595049 -2.622478 0.868050 2.871504 30.954777 -1.148685 -1.703901 0.671549 1.698925 -1.592198 -7.314450 -0.107674 0.006396 11.357063 -0.816618 -5.440012 -6.498387 -3.346571 -0.180295 -73.958427 12.031266 -23.615940 -19.432766 -5.000000 32.694675 -24.471420 6.194631 18.759211 6.965646 5.541996 -0.285572 66.207466 -0.756445 -6.012820 26.148771 5.000000 11.675005 16.798161 -19.127592 1.205801 4.891974 7.869687 -7.605827 -2.193118 -5.892314 -0.010174 -3.737003 7.437693 -0.903618 3.649044 -11.183530 -0.871996 4.296872 3.270808 0.285378 -0.427873 -16.005432 10.968520 
2.825719 53.970863 -6.779977 -2.362035 0.829099 2.783618 31.174503 -1.313106 -1.833797 0.799332 1.669639 -1.562906 -7.480489 -0.204231 0.021023 11.090996 -0.797227 -5.400954 -6.566091 -3.318418 -0.169099 -73.622139 11.132729 -22.428083 -20.828062 -5.000000 30.262815 -23.146366 5.951938 17.935669 7.112229 5.561502 -0.286582 66.339142 -0.421365 -5.770484 25.625118 5.000000 12.541471 17.605295 -19.790426 2.981099 4.547210 7.708295 -7.579303 -2.477601 -6.000725 0.038955 -3.497999 7.501105 -0.648412 2.654161 -11.554327 -0.847949 5.179483 3.549824 0.361799 -0.624282 -15.988739 11.007464 
2.972761 53.972977 -6.983790 -2.106640 0.673066 2.724880 31.336990 -1.359218 -2.000803 0.917023 1.689183 -1.562918 -7.568385 -0.321561 0.028898 10.933327 -0.807167 -5.234956 -6.634738 -3.229517 -0.174254 -73.266396 10.330516 -21.260235 -22.538710 -5.000000 27.840542 -22.030960 5.684585 16.943071 7.307590 5.571255 -0.287087 66.468239 -0.050361 -5.489413 25.312004 5.000000 13.436189 18.749973 -20.417553 4.525131 4.138223 7.690216 -7.577787 -2.693358 -6.025579 0.049636 -3.173356 7.446967 -0.565760 1.513497 -11.842926 -0.578494 6.400596 4.017879 0.570995 -1.120196 -16.088722 10.957358 
3.119798 53.975090 -7.187603 -1.850560 0.526777 2.656407 31.509630 -1.417929 -2.163547 1.034615 1.698957 -1.572692 -7.646586 -0.437430 0.046429 10.765835 -0.817105 -5.068957 -6.702801 -3.131980 -0.169220 -72.924843 9.526628 -20.109829 -24.250284 -5.000000 25.437208 -20.924170 5.458746 15.936249 7.512718 5.581007 -0.287592 66.597740 0.319149 -5.206586 24.994820 5.000000 14.324228 19.889381 -21.117655 6.026934 3.738937 7.662763 -7.577071 -2.875898 -6.048529 0.087008 -2.892803 7.459854 -0.440272 0.370816 -12.110567 -0.292485 7.622594 4.508459 0.752237 -1.617365 -16.165886 10.905370 
3.239101 53.986027 -7.386360 -1.639367 0.243892 2.587950 31.648630 -1.359379 -2.255450 1.141865 1.708721 -1.572692 -7.705241 -0.505020 0.056655 10.692237 -0.904933 -4.863908 -6.780665 -3.044193 -0.164689 -72.551048 8.813828 -19.038992 -26.077986 -5.000000 23.209711 -19.946787 5.127612 14.835828 7.659502 5.639522 -0.290622 66.658005 0.694010 -4.843321 24.793972 5.000000 15.096948 21.135077 -21.635246 7.104726 3.359274 7.810275 -7.561006 -3.033992 -6.092020 0.083591 -2.556778 7.475728 -0.361317 -0.781013 -12.223545 0.144213 9.098763 5.074339 1.037546 -2.308697 -16.180695 10.909300 
